<svg width="1080" height="1080" viewBox="0 0 1080 1080" fill="none" xmlns="http://www.w3.org/2000/svg">
    <path d="M1080 0H0V1080H1080V0Z" fill="#2F3C4F"/>
        <path d="M530.147 493.952C505.557 493.952 483.493 487.888 463.955 475.762C444.418 463.298 428.923 446.624 417.469 425.739C406.353 404.517 400.795 380.6 400.795 353.989C400.795 327.377 406.859 303.461 418.985 282.239C431.449 261.017 448.123 244.343 469.008 232.216C490.23 219.752 513.978 213.521 540.253 213.521C566.527 213.521 590.107 219.752 610.992 232.216C631.877 244.343 648.383 261.017 660.51 282.239C672.973 303.461 679.205 327.377 679.205 353.989H659.499C659.499 380.6 653.773 404.517 642.32 425.739C631.203 446.624 615.877 463.298 596.339 475.762C576.802 487.888 554.738 493.952 530.147 493.952ZM540.253 448.476C557.432 448.476 572.759 444.434 586.233 436.35C599.708 427.928 610.319 416.644 618.066 402.496C625.814 388.011 629.688 371.842 629.688 353.989C629.688 335.799 625.814 319.63 618.066 305.482C610.319 290.997 599.708 279.713 586.233 271.628C572.759 263.207 557.432 258.996 540.253 258.996C523.41 258.996 508.083 263.207 494.272 271.628C480.798 279.713 470.019 290.997 461.934 305.482C454.187 319.63 450.313 335.799 450.313 353.989C450.313 371.842 454.187 388.011 461.934 402.496C470.019 416.644 480.798 427.928 494.272 436.35C508.083 444.434 523.41 448.476 540.253 448.476ZM653.436 492.436C646.025 492.436 639.793 490.078 634.74 485.362C630.024 480.309 627.667 474.077 627.667 466.667V389.359L637.267 335.799L679.205 353.989V466.667C679.205 474.077 676.679 480.309 671.626 485.362C666.91 490.078 660.847 492.436 653.436 492.436Z" fill="#FCB040"/>
    <path d="M158.129 808.004L223.769 648.464H261.83L326.786 808.004H291.003L274.821 766.068H208.954L192.544 808.004H158.129ZM219.21 739.63H264.793L242.002 680.828L219.21 739.63ZM338.278 808.004V689.261H369.502V702.48C373.301 697.314 377.859 693.364 383.177 690.629C388.495 687.894 394.497 686.526 401.182 686.526C406.956 686.678 411.286 687.59 414.173 689.261V716.611C411.894 715.547 409.387 714.787 406.652 714.332C403.917 713.724 401.106 713.42 398.219 713.42C392.141 713.42 386.596 714.939 381.581 717.978C376.567 721.017 372.541 725.347 369.502 730.969V808.004H338.278ZM487.608 809.828C474.389 809.828 464.361 806.865 457.523 800.939C450.838 794.861 447.495 786.049 447.495 774.501V715.243H423.108V689.261H447.495V658.948L478.719 651.883V689.261H512.678V715.243H478.719V768.119C478.719 773.589 479.935 777.54 482.366 779.971C484.797 782.25 489.051 783.39 495.129 783.39C498.168 783.39 500.903 783.238 503.334 782.934C505.917 782.478 508.728 781.718 511.767 780.655V806.409C508.576 807.473 504.549 808.308 499.687 808.916C494.977 809.524 490.951 809.828 487.608 809.828ZM527.909 808.004V648.464L559.134 641.627V699.061C568.098 691.008 579.19 686.982 592.409 686.982C601.678 686.982 609.807 689.033 616.796 693.136C623.937 697.086 629.483 702.632 633.434 709.773C637.384 716.763 639.36 724.968 639.36 734.388V808.004H608.135V738.946C608.135 731.197 605.932 725.12 601.526 720.713C597.119 716.155 591.118 713.876 583.521 713.876C578.203 713.876 573.492 714.939 569.39 717.067C565.287 719.042 561.869 721.929 559.134 725.727V808.004H527.909ZM707.937 810.284C698.82 810.284 690.691 808.308 683.55 804.358C676.561 800.255 671.015 794.633 666.912 787.492C662.962 780.351 660.986 772.146 660.986 762.877V689.261H692.211V758.319C692.211 765.916 694.414 771.994 698.82 776.552C703.379 781.111 709.456 783.39 717.053 783.39C722.219 783.39 726.854 782.402 730.956 780.427C735.211 778.3 738.705 775.337 741.44 771.538V689.261H772.664V808.004H741.44V798.432C732.324 806.333 721.156 810.284 707.937 810.284ZM797 808.004V648.464L828.224 643.222V698.833C837.644 691.388 848.736 687.666 861.499 687.666C872.743 687.666 882.923 690.401 892.04 695.871C901.156 701.341 908.374 708.71 913.692 717.978C919.162 727.095 921.897 737.351 921.897 748.747C921.897 760.142 919.162 770.475 913.692 779.743C908.222 788.86 900.853 796.153 891.584 801.623C882.316 806.941 871.983 809.6 860.588 809.6C854.662 809.6 848.888 808.764 843.266 807.093C837.644 805.421 832.478 802.99 827.768 799.799V808.004H797ZM856.485 783.162C863.019 783.162 868.869 781.642 874.035 778.603C879.353 775.565 883.531 771.462 886.57 766.296C889.609 761.13 891.128 755.28 891.128 748.747C891.128 742.213 889.609 736.363 886.57 731.197C883.531 725.879 879.353 721.777 874.035 718.89C868.869 715.851 863.019 714.332 856.485 714.332C850.711 714.332 845.393 715.319 840.531 717.295C835.821 719.118 831.719 721.929 828.224 725.727V771.994C831.567 775.489 835.669 778.224 840.531 780.199C845.545 782.174 850.863 783.162 856.485 783.162Z" fill="#FCB040"/>
</svg>
